<?xml version="1.0" ?><!-- Uploaded to: SVG Repo, www.svgrepo.com, Generator: SVG Repo Mixer Tools -->
<svg width="800px" height="800px" viewBox="0 0 50 50" data-name="Layer 1" id="Layer_1" xmlns="http://www.w3.org/2000/svg"><defs><style>.cls-1{fill:#231f20;}.cls-2{fill:#00a1d3;}.cls-3{fill:#ffba50;}.cls-4{fill:#7cc05b;}.cls-5{fill:#d12200;}</style></defs><title/><path class="cls-1" d="M25,11.107a3.3,3.3,0,1,0-3.3-3.3A3.307,3.307,0,0,0,25,11.107Z"/><path class="cls-2" d="M25,5.5a2.3,2.3,0,1,1-2.3,2.3A2.306,2.306,0,0,1,25,5.5Z"/><path class="cls-1" d="M23.223,21.7h3.554a2.856,2.856,0,0,0,2.853-2.853V16.573a4.63,4.63,0,1,0-9.26,0v2.278A2.856,2.856,0,0,0,23.223,21.7Z"/><path class="cls-2" d="M21.37,16.573a3.63,3.63,0,1,1,7.26,0v2.278A1.855,1.855,0,0,1,26.777,20.7H23.223a1.855,1.855,0,0,1-1.853-1.853Z"/><circle class="cls-1" cx="25" cy="41.073" r="4.427"/><circle class="cls-3" cx="25" cy="41.073" r="3.427"/><circle class="cls-1" cx="41.073" cy="41.073" r="4.427"/><circle class="cls-4" cx="41.073" cy="41.073" r="3.427"/><circle class="cls-1" cx="8.927" cy="41.073" r="4.427"/><circle class="cls-5" cx="8.927" cy="41.073" r="3.427"/><path class="cls-1" d="M8.927,35.92a.5.5,0,0,0,.5-.5V32.4a3.244,3.244,0,0,1,3.24-3.24H24.5V35.42a.5.5,0,0,0,1,0V29.156H37.333a3.244,3.244,0,0,1,3.24,3.24V35.42a.5.5,0,0,0,1,0V32.4a4.245,4.245,0,0,0-4.24-4.24H25.5V22.694a.5.5,0,0,0-1,0v5.462H12.667a4.245,4.245,0,0,0-4.24,4.24V35.42A.5.5,0,0,0,8.927,35.92Z"/></svg>