<?xml version="1.0" encoding="iso-8859-1"?>
<!-- Uploaded to: SVG Repo, www.svgrepo.com, Generator: SVG Repo Mixer Tools -->
<svg height="800px" width="800px" version="1.1" id="Layer_1" xmlns="http://www.w3.org/2000/svg" xmlns:xlink="http://www.w3.org/1999/xlink" 
	 viewBox="0 0 512 512" xml:space="preserve">
<g>
	<path style="fill:#DDB464;" d="M414.913,69.373c33.243,22.833,49.364,63.659,40.257,102.939
		c-3.78,16.296-9.817,34.197-19.297,52.353v0.012c-24.891,11.457-16.909,40.545-20.131,60.423
		c32.615,27.724-57.226,31.031-57.691,31.484l38.484-259.843L414.913,69.373z"/>
	<path style="fill:#DDB464;" d="M115.46,56.752l50.594,265.568c-0.454-0.442-131.37,8.85-94.602-27.916
		c-3.234-19.867,29.552-58.271,4.672-69.729v-0.012c-9.48-18.157-15.528-36.058-19.297-52.353
		c-9.107-39.28,7.014-80.106,40.257-102.939L115.46,56.752z"/>
</g>
<g>
	<path style="fill:#FCD577;" d="M164.452,393.333c-11.911,7.921-22.018,19.448-28.346,35.174c-1.745,4.35-3.199,9.026-4.327,14.039
		c-7.642,34.034-18.366,67.928-18.366,67.928H65.689c33.964-33.964,12.236-34.883,12.236-75.267c0-9.549,1.64-17.691,4.152-24.577
		c2.838-7.805,6.793-13.969,10.736-18.68c7.281,5.513,16.656,8.328,26.543,7.072L164.452,393.333z"/>
	<path style="fill:#FCD577;" d="M446.307,510.474h-47.724c0,0-10.724-33.894-18.366-67.928c-1.128-5.013-2.582-9.689-4.339-14.039
		c-6.316-15.726-16.424-27.253-28.334-35.174l45.095,5.688c9.887,1.256,19.262-1.559,26.543-7.072
		c3.943,4.711,7.898,10.875,10.736,18.68c2.512,6.886,4.152,15.028,4.152,24.577C434.07,475.591,412.343,476.51,446.307,510.474z"/>
</g>
<g>
	<path style="fill:#EAC36E;" d="M119.357,399.021l45.095-5.688c-11.911,7.921-22.018,19.448-28.346,35.174l-16.749,2.117
		c-9.887,1.256-19.262-1.559-26.543-7.072c-4.501-3.385-8.2-7.805-10.736-12.923c2.838-7.805,6.793-13.969,10.736-18.68
		C100.095,397.462,109.47,400.277,119.357,399.021z"/>
	<path style="fill:#EAC36E;" d="M111.517,325.859c1.5-5.851,6.223-26.939,2.617-49.12c0.419,0.454,0.872,0.919,1.326,1.361V56.752
		v-0.012c0-24.519,20.088-43.025,42.932-43.025c4.501,0,9.119,0.721,13.702,2.257c8.852,2.966,18.424,2.966,27.276,0l30.451-10.189
		c16.994-5.676,35.36-5.676,52.353,0l30.451,10.189c4.42,1.489,9.026,2.222,13.632,2.222c4.606,0,9.212-0.733,13.644-2.222
		c27.846-9.317,56.634,11.411,56.634,40.768V278.1c0.465-0.454,0.896-0.896,1.326-1.338c-3.606,22.158,1.105,43.223,2.617,49.085
		C389.371,316.821,122.625,316.833,111.517,325.859z"/>
	<path style="fill:#EAC36E;" d="M429.918,410.629c-2.536,5.118-6.234,9.538-10.736,12.923c-7.281,5.513-16.656,8.328-26.543,7.072
		l-16.761-2.117c-6.316-15.726-16.424-27.253-28.334-35.174l45.095,5.688c9.887,1.256,19.262-1.559,26.543-7.072
		C423.125,396.66,427.08,402.824,429.918,410.629z"/>
</g>
<path style="fill:#FCD577;" d="M355.651,56.741v251.834c-27.636-9.317-62.182,2.89-99.647,2.89
	c-37.477,0-72.011-12.196-99.659-2.879V56.741c0-0.395,0-1.07,0.884-1.698c0.454-0.337,0.849-0.43,1.175-0.43
	c0.291,0,0.535,0.081,0.721,0.14c8.572,2.873,17.587,4.304,26.601,4.304c9.014,0,18.04-1.431,26.613-4.304l30.463-10.189
	c4.257-1.431,8.724-2.14,13.202-2.14c4.466,0,8.945,0.71,13.202,2.14l30.451,10.189c8.584,2.873,17.598,4.304,26.613,4.304
	s18.029-1.431,26.613-4.304c0.174-0.058,0.419-0.14,0.71-0.14c0.326,0,0.721,0.093,1.186,0.43
	C355.651,55.671,355.651,56.345,355.651,56.741z"/>
<path style="fill:#DDB464;" d="M433.71,359.055v5.513c0,12.004-5.758,22.519-14.528,29.125c-7.281,5.513-16.656,8.328-26.543,7.072
	l-45.095-5.688l-10.759-1.361c-13.272,12.376-44.444,21.065-80.781,21.065c-36.348,0-67.521-8.689-80.781-21.065l-10.771,1.361
	l-45.095,5.688c-9.887,1.256-19.262-1.559-26.543-7.072c-8.77-6.607-14.528-17.122-14.528-29.125v-5.513H433.71z"/>
<polygon style="fill:#FCD577;" points="433.71,327.452 433.71,359.055 78.286,359.055 78.286,327.452 82.241,327.452 
	109.61,327.452 111.087,327.452 400.909,327.452 402.398,327.452 429.755,327.452 "/>
<path style="fill:#F7DEB0;" d="M156.345,302.77c27.648-9.317,62.182-14.853,99.659-14.853c37.465,0,72.011,5.525,99.647,14.842
	c18.378,6.188,33.72,14.062,44.828,23.089c0.268,1.047,0.43,1.605,0.43,1.605H111.087c0,0,0.163-0.558,0.43-1.594
	C122.625,316.833,137.956,308.958,156.345,302.77z"/>
<g>
	<path style="fill:#FCD577;" d="M114.134,276.739c3.606,22.181-1.117,43.269-2.617,49.12c-0.651,0.523-1.291,1.058-1.908,1.594
		H82.241c-9.91,0-18.855-6.304-21.832-15.761c-3.71-11.794-10.201-19.669-10.201-19.669c-66.323,19.983-70.405-91.307,8.631-73.139
		c6.444,1.477,12.178,3.443,17.284,5.792C101.002,236.133,110.901,256.872,114.134,276.739z"/>
	<path style="fill:#FCD577;" d="M461.788,292.023c0,0-6.49,7.875-10.201,19.669c-2.978,9.456-11.922,15.761-21.832,15.761h-27.357
		c-0.628-0.535-1.268-1.07-1.919-1.605c-1.512-5.862-6.223-26.927-2.617-49.085c3.222-19.878,13.12-40.629,38.012-52.086
		c5.106-2.35,10.841-4.315,17.284-5.792C532.205,200.716,528.111,312.006,461.788,292.023z"/>
</g>
<g>
	<path style="fill:#EAC36E;" d="M207.146,134.125c-3.211,0-5.816-2.604-5.816-5.816V95.741c0-3.211,2.604-5.816,5.816-5.816
		s5.816,2.604,5.816,5.816v32.568C212.961,131.522,210.358,134.125,207.146,134.125z"/>
	<path style="fill:#EAC36E;" d="M223.43,117.841h-32.568c-3.211,0-5.816-2.604-5.816-5.816c0-3.211,2.604-5.816,5.816-5.816h32.568
		c3.211,0,5.816,2.604,5.816,5.816C229.245,115.237,226.642,117.841,223.43,117.841z"/>
	<path style="fill:#EAC36E;" d="M304.85,134.125c-3.213,0-5.816-2.604-5.816-5.816V95.741c0-3.211,2.603-5.816,5.816-5.816
		s5.816,2.604,5.816,5.816v32.568C310.666,131.522,308.063,134.125,304.85,134.125z"/>
	<path style="fill:#EAC36E;" d="M321.134,117.841h-32.568c-3.213,0-5.816-2.604-5.816-5.816c0-3.211,2.603-5.816,5.816-5.816h32.568
		c3.213,0,5.816,2.604,5.816,5.816C326.95,115.237,324.347,117.841,321.134,117.841z"/>
	<path style="fill:#EAC36E;" d="M207.146,232.993c-3.211,0-5.816-2.604-5.816-5.816v-32.568c0-3.211,2.604-5.816,5.816-5.816
		s5.816,2.604,5.816,5.816v32.568C212.961,230.389,210.358,232.993,207.146,232.993z"/>
	<path style="fill:#EAC36E;" d="M223.43,216.709h-32.568c-3.211,0-5.816-2.604-5.816-5.816s2.604-5.816,5.816-5.816h32.568
		c3.211,0,5.816,2.604,5.816,5.816S226.642,216.709,223.43,216.709z"/>
	<path style="fill:#EAC36E;" d="M304.85,232.993c-3.213,0-5.816-2.604-5.816-5.816v-32.568c0-3.211,2.603-5.816,5.816-5.816
		s5.816,2.604,5.816,5.816v32.568C310.666,230.389,308.063,232.993,304.85,232.993z"/>
	<path style="fill:#EAC36E;" d="M321.134,216.709h-32.568c-3.213,0-5.816-2.604-5.816-5.816s2.603-5.816,5.816-5.816h32.568
		c3.213,0,5.816,2.604,5.816,5.816S324.347,216.709,321.134,216.709z"/>
	<circle style="fill:#EAC36E;" cx="33.941" cy="255.637" r="13.57"/>
	<circle style="fill:#EAC36E;" cx="478.055" cy="255.637" r="13.57"/>
</g>
</svg>