<?xml version="1.0" encoding="iso-8859-1"?>
<!-- Uploaded to: SVG Repo, www.svgrepo.com, Generator: SVG Repo Mixer Tools -->
<svg version="1.1" id="Layer_1" xmlns="http://www.w3.org/2000/svg" xmlns:xlink="http://www.w3.org/1999/xlink" 
	 viewBox="0 0 512 512" xml:space="preserve">
<circle style="fill:#00CC96;" cx="255.947" cy="255.999" r="255.947"/>
<path style="fill:#07B587;" d="M511.585,241.354C511.896,246.236,512,251.118,512,256c0,141.374-114.574,255.948-255.948,255.948
	c-4.986,0-9.868-0.208-14.75-0.415L121.534,391.766l270.699-269.763L511.689,241.46L511.585,241.354z"/>
<path style="fill:#E84F4F;" d="M128.909,117.535h254.182c6.311,0,11.426,5.116,11.426,11.426v254.182
	c0,6.311-5.116,11.426-11.426,11.426H128.909c-6.311,0-11.426-5.116-11.426-11.426V128.961
	C117.482,122.651,122.598,117.535,128.909,117.535z"/>
<rect x="124.547" y="158.458" style="fill:#EFEFF0;" width="262.802" height="229.041"/>
<g>
	<path style="fill:#EBECEC;" d="M213.359,130.727h155.189c1.32,0,2.389,1.07,2.389,2.389v6.336c0,1.32-1.07,2.389-2.389,2.389
		H213.359c-1.32,0-2.389-1.07-2.389-2.389v-6.336C210.97,131.797,212.039,130.727,213.359,130.727z"/>
	<path style="fill:#EBECEC;" d="M143.867,128.131c4.467,0,8.102,3.635,8.102,8.102s-3.635,8.102-8.102,8.102
		c-4.467,0-8.102-3.635-8.102-8.102S139.4,128.131,143.867,128.131z M186.352,128.131c4.467,0,8.102,3.635,8.102,8.102
		s-3.635,8.102-8.102,8.102c-4.467,0-8.102-3.635-8.102-8.102S181.885,128.131,186.352,128.131z M165.058,128.131
		c4.467,0,8.102,3.635,8.102,8.102s-3.635,8.102-8.102,8.102s-8.102-3.635-8.102-8.102S160.591,128.131,165.058,128.131z"/>
</g>
<path style="fill:#056B78;" d="M258.545,244.99c10.283,1.766,15.062,11.634,14.854,20.983l100.24-0.831
	c2.701,0,4.986,1.351,4.986,3.012l0,0c0,1.662-2.285,2.805-4.986,3.013l-103.875,9.764c-3.324,4.778-8.31,7.791-13.815,7.791
	c-5.505,0-10.491-3.012-13.816-7.791l-103.875-9.764c-2.701-0.208-4.986-1.351-4.986-3.013l0,0c0-1.662,2.285-3.116,4.986-3.012
	l100.24,0.831c-0.311-9.245,4.571-19.217,14.854-20.983l0.104-3.843h-30.643c-1.039,0-1.973-0.935-1.973-2.181l0,0
	c0-1.143,0.831-2.181,1.973-2.181h30.747l0.415-17.763c0-1.662,0.415-3.116,1.87-3.116l0,0c1.351,0,1.766,1.351,1.87,3.116
	l0.415,17.763h30.747c1.039,0,1.973,0.935,1.973,2.181l0,0c0,1.143-0.831,2.181-1.973,2.181h-30.643l0.104,3.843L258.545,244.99
	L258.545,244.99z M203.387,279.269c4.259,0,7.583,3.739,7.583,8.31s-3.428,8.31-7.583,8.31c-4.259,0-7.583-3.739-7.583-8.31
	S199.233,279.269,203.387,279.269z M308.717,279.269c4.259,0,7.583,3.739,7.583,8.31s-3.428,8.31-7.583,8.31
	c-4.259,0-7.583-3.739-7.583-8.31S304.561,279.269,308.717,279.269z M308.717,283.944c1.87,0,3.324,1.662,3.324,3.635
	s-1.454,3.635-3.324,3.635c-1.87,0-3.324-1.662-3.324-3.635C305.393,285.502,306.847,283.944,308.717,283.944z M203.387,283.944
	c1.87,0,3.324,1.662,3.324,3.635s-1.454,3.635-3.324,3.635c-1.87,0-3.324-1.662-3.324-3.635
	C200.063,285.502,201.518,283.944,203.387,283.944z"/>
</svg>