<svg id="visual" viewBox="0 0 960 540" width="960" height="540" xmlns="http://www.w3.org/2000/svg" xmlns:xlink="http://www.w3.org/1999/xlink" version="1.1"><rect width="960" height="540" fill="#fcfcfc"></rect><g><g transform="translate(217 414)"><path d="M0 -84.2L72.9 -42.1L72.9 42.1L0 84.2L-72.9 42.1L-72.9 -42.1Z" fill="#00bb53"></path></g><g transform="translate(487 422)"><path d="M0 -63L54.6 -31.5L54.6 31.5L0 63L-54.6 31.5L-54.6 -31.5Z" fill="#00bb53"></path></g><g transform="translate(530 95)"><path d="M0 -72L62.4 -36L62.4 36L0 72L-62.4 36L-62.4 -36Z" fill="#00bb53"></path></g><g transform="translate(852 473)"><path d="M0 -78L67.5 -39L67.5 39L0 78L-67.5 39L-67.5 -39Z" fill="#00bb53"></path></g><g transform="translate(380 253)"><path d="M0 -70L60.6 -35L60.6 35L0 70L-60.6 35L-60.6 -35Z" fill="#00bb53"></path></g><g transform="translate(666 212)"><path d="M0 -67L58 -33.5L58 33.5L0 67L-58 33.5L-58 -33.5Z" fill="#00bb53"></path></g></g></svg>