<svg id="visual" viewBox="0 0 900 600" width="900" height="600" xmlns="http://www.w3.org/2000/svg" xmlns:xlink="http://www.w3.org/1999/xlink" version="1.1"><rect width="900" height="600" fill="#fcfcfc"></rect><g><g transform="translate(36 470)"><path d="M0 -85.9L74.4 -42.9L74.4 42.9L0 85.9L-74.4 42.9L-74.4 -42.9Z" fill="#00bb53"></path></g><g transform="translate(575 462)"><path d="M0 -80L69.3 -40L69.3 40L0 80L-69.3 40L-69.3 -40Z" fill="#00bb53"></path></g><g transform="translate(713 102)"><path d="M0 -80L69.3 -40L69.3 40L0 80L-69.3 40L-69.3 -40Z" fill="#00bb53"></path></g><g transform="translate(889 555)"><path d="M0 -77L66.7 -38.5L66.7 38.5L0 77L-66.7 38.5L-66.7 -38.5Z" fill="#00bb53"></path></g><g transform="translate(48 47)"><path d="M0 -66L57.2 -33L57.2 33L0 66L-57.2 33L-57.2 -33Z" fill="#00bb53"></path></g><g transform="translate(271 232)"><path d="M0 -78L67.5 -39L67.5 39L0 78L-67.5 39L-67.5 -39Z" fill="#00bb53"></path></g></g></svg>