<svg id="visual" viewBox="0 0 900 600" width="900" height="600" xmlns="http://www.w3.org/2000/svg" xmlns:xlink="http://www.w3.org/1999/xlink" version="1.1"><rect width="900" height="600" fill="#fcfcfc"></rect><g><g transform="translate(795 594)"><path d="M66.6 -22.4C75.6 6 64.8 40.2 42.7 55.4C20.7 70.6 -12.6 66.9 -35.8 49.9C-59 32.9 -72.1 2.6 -64.5 -24C-56.8 -50.7 -28.4 -73.6 0.2 -73.7C28.8 -73.8 57.6 -50.9 66.6 -22.4Z" stroke="#00d73f" fill="none" stroke-width="20"></path></g><g transform="translate(854 101)"><path d="M45.5 -13.8C51.8 4.9 45.1 28.8 28.3 41.6C11.5 54.5 -15.4 56.3 -33 43.8C-50.7 31.4 -59.2 4.7 -52.2 -14.9C-45.1 -34.5 -22.6 -47 -1.5 -46.5C19.5 -46 39.1 -32.5 45.5 -13.8Z" stroke="#00d73f" fill="none" stroke-width="20"></path></g><g transform="translate(455 158)"><path d="M65.9 -21.8C74 3.4 61.2 35 37.9 51.8C14.6 68.7 -19.1 70.7 -40.5 55.3C-61.9 39.9 -70.8 7 -62 -19.3C-53.2 -45.5 -26.6 -65.1 1.2 -65.5C28.9 -65.8 57.9 -47 65.9 -21.8Z" stroke="#00d73f" fill="none" stroke-width="20"></path></g><g transform="translate(498 474)"><path d="M56.5 -18C63.3 2.5 52 29.3 31.5 44.5C10.9 59.7 -18.9 63.3 -38.1 49.9C-57.4 36.5 -66.1 6.1 -58 -16.2C-49.9 -38.5 -24.9 -52.7 0 -52.7C24.9 -52.7 49.7 -38.5 56.5 -18Z" stroke="#00d73f" fill="none" stroke-width="20"></path></g><g transform="translate(78 21)"><path d="M57.9 -17C65.5 4.5 55.5 33.6 36.6 46.4C17.7 59.1 -10.1 55.6 -29.3 41.4C-48.4 27.2 -59.1 2.3 -52.7 -17.5C-46.4 -37.2 -23.2 -51.8 1 -52.1C25.2 -52.4 50.3 -38.5 57.9 -17Z" stroke="#00d73f" fill="none" stroke-width="20"></path></g><g transform="translate(43 247)"><path d="M51.4 -18.8C56.8 0 44.7 22.4 26.1 35.8C7.6 49.3 -17.4 53.8 -34.2 42.6C-50.9 31.5 -59.5 4.7 -52.5 -16.4C-45.4 -37.4 -22.7 -52.7 0.1 -52.7C23 -52.8 46 -37.6 51.4 -18.8Z" stroke="#00d73f" fill="none" stroke-width="20"></path></g></g></svg>