<svg id="visual" viewBox="0 0 960 540" width="960" height="540" xmlns="http://www.w3.org/2000/svg" xmlns:xlink="http://www.w3.org/1999/xlink" version="1.1"><rect width="960" height="540" fill="#fcfcfc"></rect><g><g transform="translate(537 243)"><path d="M0 -84.2L72.9 -42.1L72.9 42.1L0 84.2L-72.9 42.1L-72.9 -42.1Z" fill="#00bb53"></path></g><g transform="translate(749 441)"><path d="M0 -67L58 -33.5L58 33.5L0 67L-58 33.5L-58 -33.5Z" fill="#00bb53"></path></g><g transform="translate(831 106)"><path d="M0 -70L60.6 -35L60.6 35L0 70L-60.6 35L-60.6 -35Z" fill="#00bb53"></path></g><g transform="translate(281 243)"><path d="M0 -70L60.6 -35L60.6 35L0 70L-60.6 35L-60.6 -35Z" fill="#00bb53"></path></g><g transform="translate(384 434)"><path d="M0 -65L56.3 -32.5L56.3 32.5L0 65L-56.3 32.5L-56.3 -32.5Z" fill="#00bb53"></path></g><g transform="translate(111 148)"><path d="M0 -75L65 -37.5L65 37.5L0 75L-65 37.5L-65 -37.5Z" fill="#00bb53"></path></g></g></svg>