<svg id="visual" viewBox="0 0 900 600" width="900" height="600" xmlns="http://www.w3.org/2000/svg" xmlns:xlink="http://www.w3.org/1999/xlink" version="1.1"><rect width="900" height="600" fill="#fcfcfc"></rect><g><g transform="translate(78 216)"><path d="M60.3 -20.7C68.9 6.8 60.1 38.7 39.8 53.1C19.4 67.5 -12.5 64.4 -33.1 48.7C-53.7 33 -63 4.7 -55.6 -21.1C-48.2 -47 -24.1 -70.5 0.9 -70.8C25.9 -71 51.7 -48.1 60.3 -20.7Z" stroke="#00d73f" fill="none" stroke-width="20"></path></g><g transform="translate(415 177)"><path d="M57.2 -17.4C65.1 5.9 56.4 35.8 36.2 50.7C16 65.5 -15.7 65.4 -35.4 50.6C-55.2 35.9 -62.9 6.5 -55 -16.8C-47.1 -40 -23.5 -57.1 0.5 -57.3C24.6 -57.4 49.2 -40.7 57.2 -17.4Z" stroke="#00d73f" fill="none" stroke-width="20"></path></g><g transform="translate(191 471)"><path d="M47.3 -16.8C53.7 4.1 45.8 28.2 27.9 42.2C9.9 56.1 -18.2 59.9 -37.1 47.1C-56.1 34.3 -65.9 4.8 -58.2 -18C-50.5 -40.8 -25.2 -57 -2.4 -56.2C20.5 -55.4 41 -37.7 47.3 -16.8Z" stroke="#00d73f" fill="none" stroke-width="20"></path></g><g transform="translate(678 18)"><path d="M63.5 -21.6C71.9 5 60.9 37 39 52.6C17.1 68.3 -15.9 67.8 -37.7 51.9C-59.5 36 -70.2 4.9 -62 -21.4C-53.9 -47.7 -26.9 -69.2 0.3 -69.3C27.6 -69.4 55.2 -48.1 63.5 -21.6Z" stroke="#00d73f" fill="none" stroke-width="20"></path></g><g transform="translate(576 435)"><path d="M50.9 -15.1C59 8.1 53.5 37.2 34.3 52.4C15 67.6 -18.1 69 -38.4 54C-58.8 38.9 -66.4 7.4 -57.9 -16.5C-49.4 -40.4 -24.7 -56.7 -1.6 -56.2C21.5 -55.6 42.9 -38.3 50.9 -15.1Z" stroke="#00d73f" fill="none" stroke-width="20"></path></g><g transform="translate(801 440)"><path d="M47.9 -16.2C54.5 4.8 47.1 29.7 30.8 41.2C14.5 52.8 -10.7 51.1 -27.2 38.8C-43.7 26.4 -51.6 3.6 -45.6 -16.6C-39.6 -36.7 -19.8 -54.1 0.4 -54.2C20.7 -54.3 41.3 -37.2 47.9 -16.2Z" stroke="#00d73f" fill="none" stroke-width="20"></path></g></g></svg>